<svg width="19" height="21" viewBox="0 0 19 21" fill="none" xmlns="http://www.w3.org/2000/svg">
<path d="M0 10.5C0 16.025 4.36167 20.5 9.74107 20.5C14.0457 20.5 17.6962 17.635 18.9832 13.6625C19.0749 13.1625 18.7734 12.9792 18.5148 12.9792C18.2835 12.9792 17.6706 12.9875 16.8585 12.9917C17.4459 15.7733 15.5517 16.36 15.5517 16.36C14.4274 16.815 14.1267 17.4725 14.1267 17.4725C13.5228 18.3783 13.5352 17.4025 13.5352 17.4025C13.603 16.3983 14.5389 15.8708 14.5389 15.8708C16.0283 14.9792 15.5979 13.53 15.3493 12.9583C14.719 12.8683 14.2903 12.6108 14.0466 12.325C13.8029 14.5458 12.9652 16.88 9.23304 16.88C8.16988 16.88 7.30085 16.4925 6.61934 15.8508C6.37316 15.9633 5.3827 16.3008 4.04116 15.7633C4.04116 15.7633 3.78012 14.9258 5.03988 13.0133C4.82345 12.2133 4.71606 11.3633 4.7111 10.5133C4.71606 9.66333 4.82345 8.81333 5.03988 8.01333C3.78012 6.11333 4.04116 5.27583 4.04116 5.27583C5.3827 4.73833 6.37316 5.07583 6.61934 5.17583C7.30085 4.53833 8.16988 4.15084 9.23304 4.15084C12.9752 4.15084 13.7987 6.48833 14.0383 8.71333C14.3307 8.36333 14.928 8.03833 15.8408 8.03833C17.1444 8.03833 18.1918 8.05083 18.5082 8.05083C18.7635 8.05083 19.0683 7.87583 18.9708 7.36333C17.692 3.3625 14.0391 0.5 9.74107 0.5C4.36167 0.5 0 4.9775 0 10.5Z" fill="#C9DEEF"/>
</svg>
