<svg width="21" height="19" viewBox="0 0 21 19" fill="none" xmlns="http://www.w3.org/2000/svg">
<path d="M10.5 0C4.975 0 0.5 4.36167 0.5 9.74107C0.5 14.0457 3.365 17.6962 7.3375 18.9832C7.8375 19.0749 8.02083 18.7734 8.02083 18.5148C8.02083 18.2835 8.0125 17.6706 8.00833 16.8585C5.22667 17.4459 4.64 15.5517 4.64 15.5517C4.185 14.4274 3.5275 14.1267 3.5275 14.1267C2.62167 13.5228 3.5975 13.5352 3.5975 13.5352C4.60167 13.603 5.12917 14.5389 5.12917 14.5389C6.02083 16.0283 7.47 15.5979 8.04167 15.3493C8.13167 14.719 8.38917 14.2903 8.675 14.0466C6.45417 13.8029 4.12 12.9652 4.12 9.23304C4.12 8.16988 4.5075 7.30085 5.14917 6.61934C5.03667 6.37317 4.69917 5.3827 5.23667 4.04116C5.23667 4.04116 6.07417 3.78012 7.98667 5.03988C8.78667 4.82345 9.63667 4.71606 10.4867 4.7111C11.3367 4.71606 12.1867 4.82345 12.9867 5.03988C14.8867 3.78012 15.7242 4.04116 15.7242 4.04116C16.2617 5.3827 15.9242 6.37317 15.8242 6.61934C16.4617 7.30085 16.8492 8.16988 16.8492 9.23304C16.8492 12.9752 14.5117 13.7987 12.2867 14.0383C12.6367 14.3307 12.9617 14.928 12.9617 15.8408C12.9617 17.1444 12.9492 18.1918 12.9492 18.5082C12.9492 18.7635 13.1242 19.0683 13.6367 18.9708C17.6375 17.692 20.5 14.0391 20.5 9.74107C20.5 4.36167 16.0225 0 10.5 0Z" fill="#142240"/>
</svg>
