<svg width="19" height="19" viewBox="0 0 19 19" fill="none" xmlns="http://www.w3.org/2000/svg">
<g clip-path="url(#clip0_100023_2)">
<path d="M9.5 19C14.748 19 19 14.748 19 9.5C19 4.25204 14.748 0 9.5 0C4.25204 0 0 4.25204 0 9.5C0 14.748 4.25204 19 9.5 19ZM4.34704 9.29417L13.5067 5.76254C13.9317 5.60896 14.303 5.86625 14.1653 6.50908L14.1661 6.50826L12.6065 13.8558C12.4909 14.3767 12.1813 14.5033 11.7483 14.2579L9.37333 12.5075L8.22776 13.6112C8.10109 13.7378 7.99425 13.8447 7.74883 13.8447L7.91749 11.4277L12.3192 7.45117C12.5107 7.28251 12.2763 7.18757 12.0238 7.35541L6.58432 10.7801L4.23937 10.0487C3.73033 9.88709 3.71925 9.53958 4.34704 9.29417Z" fill="#142240"/>
</g>
<defs>
<clipPath id="clip0_100023_2">
<rect width="19" height="19" fill="white"/>
</clipPath>
</defs>
</svg>
