<svg width="19" height="19" viewBox="0 0 19 19" fill="#142240" xmlns="http://www.w3.org/2000/svg">
<g clip-path="url(#clip0_100023_2)">
<path d="M19 9.5C19 4.25201 14.748 2.38419e-07 9.5 2.38419e-07C4.25204 2.38419e-07 0 4.25201 0 9.5C0 14.748 4.25204 19 9.5 19C14.748 19 19 14.748 19 9.5ZM9.29417 14.653L5.76254 5.49334C5.60896 5.06825 5.86625 4.69699 6.50908 4.83474L6.50826 4.83392L13.8558 6.3935C14.3767 6.50908 14.5033 6.81866 14.2579 7.25167L12.5075 9.62667L13.6112 10.7722C13.7378 10.8989 13.8447 11.0058 13.8447 11.2512L11.4277 11.0825L7.45117 6.68084C7.28251 6.48932 7.18757 6.72366 7.35541 6.97617L10.7801 12.4157L10.0487 14.7606C9.88709 15.2697 9.53958 15.2808 9.29417 14.653Z" fill="#C9DEEF"/>
</g>
<defs>
<clipPath id="clip0_100023_2">
<rect width="20" height="20" fill="#142240" transform="matrix(0 -1 1 0 0 19)"/>
</clipPath>
</defs>
</svg>
